<!DOCTYPE svg PUBLIC "-//W3C//DTD SVG 1.1//EN" "http://www.w3.org/Graphics/SVG/1.1/DTD/svg11.dtd">
<!-- Uploaded to: SVG Repo, www.svgrepo.com, Transformed by: SVG Repo Mixer Tools -->
<svg fill="none" version="1.1" id="Layer_1" xmlns="http://www.w3.org/2000/svg" xmlns:xlink="http://www.w3.org/1999/xlink" width="256px" height="256px" viewBox="-51.2 -51.2 614.40 614.40" enable-background="new 0 0 512 512" xml:space="preserve" stroke="#000000" transform="rotate(0)">

<style>
svg {
  fill: #000000;
}
@media (prefers-color-scheme: dark) {
  svg {
    fill: #ffffff;
  }
}
</style>

<g id="SVGRepo_bgCarrier" stroke-width="0">

<path transform="translate(-51.2, -51.2), scale(19.2)" d="M16,25.24958934634924C19.17325020081548,25.11638752134364,22.60462485852684,28.8096022768145,25.101711129276964,26.84699693707053C27.57867069418355,24.900210346090937,24.860787402724487,20.754420322031223,25.612108636327136,17.694874094085325C26.468369019765706,14.207992439314328,30.773540452524347,11.514140454728537,29.70899786326777,8.085106393322352C28.64792981990642,4.667264308961421,24.470189547990994,2.821290903540015,20.90348803214055,2.52777735512786C17.725907600556205,2.266285636884941,15.666833497091183,5.781828245818297,12.60697278066666,6.677734331286739C9.135345750382495,7.6942027496736625,4.2082418869409945,5.0270671033561225,2.1672044777140655,8.013631781563156C0.16742785206315625,10.93982128082138,4.179170988627192,14.487003670589553,4.898287231753756,17.95753149311747C5.579817588420987,21.246666020836262,3.4261870571548494,25.79491193342273,6.233711977410289,27.63900883723108C9.122014954262264,29.536164064045085,12.54739404797883,25.394517538181145,16,25.24958934634924" fill="#ff7800" strokewidth="0"/>

</g>

<g id="SVGRepo_tracerCarrier" stroke-linecap="round" stroke-linejoin="round"/>

<g id="SVGRepo_iconCarrier"> <g> <path d="M199.5,318.466c-16-4.635-7.93-7.499-18.514-7.499c-25.814,0-41.969,16.406-41.969,36.634 c0,20.242,12.41,36.649,38.227,36.649c25.831,0,38.256-16.407,38.256-36.649V237.667l112-54.951v117.417 c-16-4.634-6.475-7.483-17.057-7.483c-25.801,0-41.25,16.407-41.25,36.634c0,20.243,11.33,36.649,37.146,36.649 c25.831,0,37.16-16.406,37.16-36.649V127.75l-144,73.284V318.466z"/> <path d="M256-0.5C114.349-0.5-0.5,114.333-0.5,256S114.349,512.5,256,512.5c141.683,0,256.5-114.833,256.5-256.5 S397.683-0.5,256-0.5z M256,472.422C136.485,472.422,39.578,375.53,39.578,256c0-119.53,96.907-216.422,216.422-216.422 c119.546,0,216.422,96.892,216.422,216.422C472.422,375.53,375.546,472.422,256,472.422z"/> </g> </g>

</svg>