<?xml version="1.0" encoding="UTF-8" standalone="no"?>
<!-- Created with Inkscape (http://www.inkscape.org/) -->
<svg
   xmlns:dc="http://purl.org/dc/elements/1.1/"
   xmlns:cc="http://creativecommons.org/ns#"
   xmlns:rdf="http://www.w3.org/1999/02/22-rdf-syntax-ns#"
   xmlns:svg="http://www.w3.org/2000/svg"
   xmlns="http://www.w3.org/2000/svg"
   xmlns:sodipodi="http://sodipodi.sourceforge.net/DTD/sodipodi-0.dtd"
   xmlns:inkscape="http://www.inkscape.org/namespaces/inkscape"
   id="svg4357"
   version="1.1"
   inkscape:version="0.91 r13725"
   width="1512.1875"
   height="150.9375"
   viewBox="0 0 1512.1875 150.9375"
   sodipodi:docname="DecorativeDivider101.svg">
  <metadata
     id="metadata4363">
    <rdf:RDF>
      <cc:Work
         rdf:about="">
        <dc:format>image/svg+xml</dc:format>
        <dc:type
           rdf:resource="http://purl.org/dc/dcmitype/StillImage" />
        <dc:title></dc:title>
      </cc:Work>
    </rdf:RDF>
  </metadata>
  <defs
     id="defs4361" />
  <sodipodi:namedview
     pagecolor="#ffffff"
     bordercolor="#666666"
     borderopacity="1"
     objecttolerance="10"
     gridtolerance="10"
     guidetolerance="10"
     inkscape:pageopacity="0"
     inkscape:pageshadow="2"
     inkscape:window-width="1600"
     inkscape:window-height="837"
     id="namedview4359"
     showgrid="false"
     inkscape:zoom="0.68708411"
     inkscape:cx="756.09375"
     inkscape:cy="75.46875"
     inkscape:window-x="-8"
     inkscape:window-y="-8"
     inkscape:window-maximized="1"
     inkscape:current-layer="svg4357" />
  <style>
   path {
      fill: #ddd;
   }
  </style>
  <path
     d="m 684.38732,146.01562 c 0.0182,-7.27555 3.10433,-20.92409 6.3462,-28.06635 4.97074,-10.9512 13.55376,-21.701133 22.66937,-28.392614 6.37172,-4.677268 17.05004,-9.751427 24.50625,-11.644953 l 6.62507,-1.682454 -5.50336,-1.544162 C 730.7938,72.373889 719.3063,66.489748 712.92899,61.315168 695.38842,47.082668 686.25353,29.885904 684.68248,8.140184 l -0.59719,-8.26606606 6.00423,0.58805966 c 19.89284,1.9483232 31.3412,6.1962363 44.47634,16.5029494 11.9505,9.377151 23.14855,28.208952 25.03257,42.097373 0.24201,1.783994 0.72067,1.010498 2.00421,-3.238701 C 766.82236,38.543723 779.18213,21.5317 793.17599,12.36613 803.62147,5.5246463 814.32565,2.1192216 830.53375,0.4811505 l 6.00251,-0.60664301 -0.60322,7.84767021 C 834.21081,30.127848 824.514,49.181074 808.81146,61.013296 799.77149,67.825111 794.23657,70.733581 783.75,74.18249 c -4.43978,1.460193 -6.89975,2.6367 -5.55483,2.656668 2.98105,0.04426 13.98599,3.733872 19.63531,6.583092 6.98811,3.52444 15.46846,9.989938 20.48383,15.617059 9.26556,10.395731 16.21395,28.020591 17.60027,44.643761 l 0.63007,7.55506 -7.73031,-0.59612 c -26.06812,-2.01023 -46.70275,-15.11699 -59.82213,-37.99798 -2.5876,-4.51294 -5.70729,-11.84483 -8.23878,-19.36278 -0.48228,-1.432281 -0.94685,-0.657521 -1.96756,3.28125 -4.21901,16.28068 -15.45969,32.16648 -29.7746,42.07872 -9.72385,6.7332 -28.06509,12.29628 -40.54032,12.29628 l -4.09595,0 0.0123,-4.92188 z m 20.94611,-3.10934 c 20.14173,-5.13554 39.08679,-22.76913 46.90039,-43.653718 2.04317,-5.461068 4.01001,-13.940062 3.23363,-13.940062 -0.1773,0 -13.6064,13.289062 -29.84245,29.53125 -18.70974,18.71682 -28.88506,29.53125 -27.78599,29.53125 0.95375,0 4.32624,-0.66092 7.49442,-1.46872 z m 90.64033,-28.02625 c -16.21609,-16.222236 -29.64333,-29.335455 -29.8383,-29.140489 -0.19497,0.194964 0.53006,3.578663 1.61116,7.51933 3.64697,13.293319 10.17426,23.766369 21.37537,34.296839 8.51467,8.00487 14.66835,11.65915 24.62801,14.62501 13.87063,4.1305 14.29582,4.78349 -17.77624,-27.30069 z m -91.40692,12.20468 c 0.5352,-0.54503 11.29301,-11.19117 23.90625,-23.65809 24.77595,-24.488531 24.44186,-23.90155 11.29535,-19.845374 -12.50177,3.857249 -23.0159,10.56737 -32.54311,20.769014 -7.39659,7.92018 -11.50487,14.99661 -14.25624,24.55599 -3.8014,13.20767 -3.96058,12.96722 3.75326,5.66984 3.77927,-3.57523 7.30929,-6.94635 7.84449,-7.49138 z m 125.18329,5.81641 c -3.32017,-12.98173 -9.07392,-22.01702 -21.4118,-33.623611 -10.25249,-9.644814 -21.33145,-15.317777 -35.36958,-18.110955 -2.2563,-0.448937 3.21295,5.35719 27.65625,29.359686 16.75781,16.45562 30.57479,29.81848 30.70441,29.69525 0.12961,-0.12322 -0.58107,-3.41739 -1.57929,-7.32037 z M 721.40625,40.886577 c -16.5,-16.175491 -30.16289,-29.262919 -30.36199,-29.083172 -0.94914,0.856924 2.28804,12.852485 5.13517,19.028638 6.33559,13.743533 19.75134,26.761155 34.61038,33.583263 6.60458,3.032307 15.27457,5.728183 18.74144,5.827526 1.24167,0.03558 -8.25831,-9.880284 -28.125,-29.356255 z m 63.99546,25.637314 c 9.19121,-3.68034 18.14049,-9.597768 25.2838,-16.718115 9.47591,-9.445455 15.29718,-19.275556 18.82477,-31.788503 l 1.92449,-6.826478 -2.98301,2.507445 c -1.64065,1.379094 -15.42832,14.749714 -30.63926,29.712487 l -27.65625,27.205042 4.16063,-0.659648 c 2.28835,-0.362806 7.27652,-1.90731 11.08483,-3.43223 z M 753.76219,58.532335 C 747.32324,35.650358 729.62163,16.134454 709.6875,9.940305 694.04963,5.0811351 693.1154,3.5471726 725.58315,36.04014 c 16.21917,16.231766 29.60618,29.395522 29.74892,29.252791 0.14273,-0.142731 -0.56372,-3.185 -1.56988,-6.760596 z M 803.79116,28.635868 C 816.10286,16.495516 825.88927,6.5625 825.53872,6.5625 c -0.35054,0 -3.67374,0.6737963 -7.3849,1.4973251 -24.79397,5.5019269 -46.03973,28.1779669 -51.73838,55.2214249 -0.53242,2.526615 0.19936,2.030597 7.19908,-4.879757 4.28545,-4.230741 17.86494,-17.625273 30.17664,-29.765625 z M 752.56052,141.78009 c -5.01766,-5.03657 -9.12302,-9.41429 -9.12302,-9.72828 0,-0.314 4.02532,-4.26589 8.94516,-8.78198 l 8.94515,-8.21106 2.40007,2.23624 c 1.32004,1.22993 5.28775,5.43113 8.81714,9.336 l 6.41707,7.09976 -8.63927,8.60335 -8.63927,8.60335 -9.12303,-9.15738 z m 18.76767,-9.53316 c -0.61105,-0.80612 -3.07311,-3.59657 -5.47122,-6.20098 l -4.36022,-4.73532 -5.76989,5.20407 c -3.17344,2.86222 -5.76021,5.52321 -5.74838,5.91329 0.0118,0.39008 2.61786,3.26559 5.79118,6.39002 l 5.76964,5.68076 5.44995,-5.39308 c 4.53822,-4.49086 5.26408,-5.63828 4.33894,-6.85876 z m -319.92194,13.4559 c -1.54688,-0.21423 -6.82031,-0.83903 -11.71875,-1.38844 -21.27733,-2.38645 -44.81731,-8.42414 -112.62442,-28.88661 C 258.75967,94.815516 231.82683,87.085214 202.79736,79.760828 l -11.42139,-2.881715 -16.70361,3.722096 C 132.20284,90.064772 100.0527,93.60404 81.09375,90.902869 69.737552,89.284897 63.008815,86.535601 57.898892,81.425678 L 53.348214,76.875 l -14.486607,0 c -11.43276,0 -14.486607,0.262983 -14.486607,1.247518 0,0.686135 1.480842,8.583452 3.29076,17.549591 1.809918,8.966151 3.181012,16.618731 3.046875,17.005761 -0.134137,0.38703 -7.10875,-7.74196 -15.499142,-18.064423 C 1.7917503,78.101054 0.10159253,75.647361 1.1509931,74.198155 4.9566651,68.942586 30.254347,38.379346 30.55223,38.67723 c 0.196721,0.196721 -1.109507,7.922478 -2.902729,17.168347 -1.793223,9.24587 -3.263576,17.338017 -3.267453,17.982548 C 24.376718,74.71444 27.840882,75 38.598203,75 l 14.223204,0 3.849355,-4.01741 C 64.382883,62.933775 74.783893,60.040942 96.099497,60.016279 117.401,59.991632 138.24446,62.815905 173.37098,70.486508 l 18.21475,3.977564 16.004,-4.064981 C 229.82451,64.751511 269.44237,53.348276 326.67982,36.121316 418.65289,8.4398558 435.10895,4.9795309 470.57677,5.8631498 c 26.8448,0.6687912 38.64312,4.6833612 51.64882,17.5743502 8.60763,8.531704 12.43962,15.51799 19.19981,35.004013 l 4.82582,13.910263 3.8168,-6.424624 c 4.66024,-7.844348 12.10331,-15.045523 18.99448,-18.37718 5.43869,-2.629432 14.86036,-5.362472 18.48616,-5.362472 1.88183,0 2.01392,-0.225473 1.04293,-1.780277 -0.89922,-1.439882 -0.7111,-2.829095 0.98388,-7.265625 4.63796,-12.139661 12.83911,-23.5299046 18.48834,-25.677742 4.53522,-1.7242863 9.16197,-1.0419743 14.01827,2.0672893 6.91962,4.4303147 12.84659,6.4063547 19.21532,6.4063547 6.83412,0 11.67162,-2.209914 15.79942,-7.2176452 C 658.69357,6.7827206 660,5.4546237 660,5.7685282 c 0,1.4793783 -5.08429,13.8163018 -8.54526,20.7348938 -7.10706,14.20726 -15.65872,24.347359 -24.40842,28.942177 -2.99882,1.574803 -5.68971,2.150473 -10.17132,2.175975 -7.39238,0.04207 -13.84345,-2.804832 -21.40163,-9.44466 l -4.99539,-4.388427 -6.58472,1.176755 c -9.14743,1.634737 -20.19368,7.331293 -25.36113,13.078747 -3.38321,3.762932 -10.09463,14.580254 -10.09463,16.270284 0,0.251936 2.5693,0.403821 5.70957,0.337522 l 5.70957,-0.120545 1.55606,-4.611218 c 2.84903,-8.44283 8.95941,-10.289144 13.56743,-4.099536 3.98067,5.346935 2.56666,19.77079 -2.18762,22.315204 -5.04082,2.697765 -10.76816,-1.011028 -11.83165,-7.661695 l -0.5755,-3.599005 -5.97393,0 c -3.28566,0 -5.97393,0.341225 -5.97393,0.758276 0,0.417053 1.50174,3.264709 3.33722,6.328125 7.81831,13.04884 18.86731,20.412199 34.28687,22.849699 l 5.00012,0.79042 4.90227,-4.4804 c 10.49575,-9.592531 21.03208,-11.930394 31.11761,-6.904558 11.11755,5.540098 22.20619,20.765218 30.15169,41.399358 3.45706,8.97783 3.46809,9.88363 0.0632,5.18326 -4.84226,-6.68452 -14.58332,-9.41349 -23.35749,-6.54361 -2.50374,0.81894 -7.46616,3.19176 -11.0276,5.27295 -3.56146,2.08119 -7.68393,3.78398 -9.16107,3.78398 -4.13363,0 -8.73573,-2.62194 -12.89416,-7.34617 -4.84232,-5.50116 -12.41208,-20.65946 -12.50478,-25.04058 -0.0583,-2.75481 -0.46569,-3.396 -2.41387,-3.79906 -13.70946,-2.83639 -20.88782,-6.26387 -27.98224,-13.360803 -2.91445,-2.91549 -6.56464,-7.724826 -8.11151,-10.687412 -1.54688,-2.962587 -3.03999,-5.387522 -3.31805,-5.388747 -0.27805,-0.0012 -2.1488,4.743866 -4.15724,10.544647 -7.94567,22.948805 -13.39639,32.789705 -22.44222,40.517795 -6.18296,5.28227 -18.48986,11.10874 -27.73874,13.13238 -6.7607,1.47923 -34.34799,2.70924 -40.78125,1.81828 z m 39.71749,-4.16678 c 4.88152,-0.96912 11.74991,-3.16249 15.46875,-4.93985 16.21726,-7.75078 23.92667,-18.40518 33.37497,-46.12418 l 4.63468,-13.59702 -8.27373,0 -8.27373,0 -0.63158,5.582478 c -1.39521,12.331994 -10.26532,24.175042 -22.44756,29.971142 -35.51339,16.89667 -113.80376,6.47025 -217.28203,-28.936841 L 268.35578,76.875 l -33.63102,0.04394 -33.63101,0.04394 10.78125,2.810101 c 22.07617,5.754089 52.58524,14.544786 105.46875,30.389137 82.15034,24.61293 94.27479,27.87081 115.40756,31.01037 23.09267,3.43074 42.31962,3.55048 58.37243,0.36357 z m -3.55696,-25.6389 c 23.4368,-5.41381 35.36674,-16.337856 37.75219,-34.569025 l 0.58266,-4.453125 -124.90394,0.04385 -124.90394,0.04385 4.6875,1.833029 c 2.57812,1.008166 10.38281,3.708626 17.34375,6.001025 52.91052,17.424654 100.92352,28.564274 141.09375,32.735514 8.64307,0.89749 42.31387,-0.24125 48.34803,-1.63512 z M 126.5625,87.082182 c 13.05379,-1.618185 51.39437,-8.789053 52.40705,-9.801731 0.223,-0.222998 -27.1219,-0.405451 -60.76643,-0.405451 -48.509829,0 -61.095283,0.242568 -60.801869,1.171875 0.656259,2.078517 9.030837,7.094666 14.498317,8.684106 12.015277,3.492935 28.466132,3.59863 54.662932,0.351201 z m 52.03125,-13.088005 c -5.1399,-1.567545 -35.43898,-7.431596 -48.28125,-9.344302 -6.96094,-1.03675 -18.99887,-2.147057 -26.75095,-2.46735 -22.514169,-0.930216 -36.293476,1.940605 -43.977117,9.16232 l -3.803183,3.574544 62.8125,-0.03373 c 39.45907,-0.02119 61.76682,-0.35264 60,-0.891478 z m 96.41854,-1.810263 c 11.31409,-4.356672 49.88938,-16.559391 68.11271,-21.546448 30.60463,-8.375367 58.11565,-14.213283 82.5,-17.506733 15.59452,-2.106261 50.75847,-2.392134 59.53125,-0.483973 26.37204,5.736163 39.0049,16.528855 42.06041,35.933676 L 528.22749,75 l 8.23001,0 c 4.5265,0 8.23,-0.138375 8.23,-0.3075 0,-1.742347 -10.42912,-29.207363 -13.40361,-35.298336 C 523.95317,24.382795 511.71138,14.918657 493.59375,10.255886 482.77495,7.4715502 461.87284,6.8517138 444.49777,8.7999823 417.71291,11.803371 402.17218,15.763887 317.8125,41.085402 269.17991,55.683025 237.19421,64.924103 210.46875,72.09839 l -10.3125,2.768327 33.77138,0.06664 33.77139,0.06665 7.31327,-2.816086 z m 250.30263,2.112961 c 0.23405,-0.386719 0.0331,-3.186489 -0.4465,-6.221712 C 518.28635,26.422437 450.93133,21.932485 334.37387,55.376605 319.15963,59.742064 275.625,73.981675 275.625,74.592596 c 0,0.725785 249.25031,0.430584 249.68992,-0.295721 z m 502.62758,71.043395 c -24.2624,-3.46067 -40.00238,-13.83217 -49.28925,-32.47813 -2.34056,-4.69926 -6.12291,-14.085978 -8.40516,-20.859377 -2.28225,-6.773395 -4.36153,-12.302716 -4.62065,-12.287383 -0.25922,0.01534 -1.94775,2.63016 -3.75244,5.810724 -6.37219,11.230318 -17.60756,19.690446 -29.53177,22.237156 -2.57784,0.55057 -5.55182,1.19561 -6.60886,1.43344 -1.45498,0.32736 -1.92543,1.17969 -1.93654,3.50848 -0.0195,4.09095 -6.59072,17.79216 -11.47324,23.92215 -4.75566,5.9707 -10.31484,9.07586 -15.09962,8.4341 -1.86367,-0.24998 -5.69311,-1.91697 -8.50985,-3.70444 -13.19054,-8.37052 -24.23619,-8.36759 -32.62432,0.008 -4.59795,4.59142 -4.59746,4.13218 0.008,-6.83439 16.69076,-39.750812 38.53375,-51.143765 60.16007,-31.37853 l 4.93684,4.51199 6.89572,-1.31392 C 941.85524,103.72791 953.0908,96.1983 959.41912,85.355691 964.51284,76.627992 964.56206,76.875 957.73116,76.875 l -5.95997,0 -0.61041,3.253653 c -0.8775,4.677685 -4.74553,8.933847 -8.11912,8.933847 -5.25741,0 -8.35416,-5.183925 -8.35416,-13.98489 0,-4.095632 0.5241,-6.203035 2.13838,-8.598468 4.66046,-6.915614 10.98596,-5.354622 13.94331,3.44089 l 1.55053,4.611218 5.71509,0.27911 c 3.14335,0.153511 5.71519,0.0016 5.71519,-0.337521 0,-0.339147 -1.37109,-3.190141 -3.04688,-6.335541 -6.94921,-13.04359 -18.84075,-21.029638 -35.15499,-23.609347 -3.79904,-0.600727 -4.25395,-0.402736 -9.84375,4.284245 -7.961,6.675213 -12.82847,8.775447 -20.39188,8.798763 -5.00271,0.01542 -6.98661,-0.473443 -11.08058,-2.730439 -10.11898,-5.57855 -20.85775,-20.141554 -28.30817,-38.389111 -3.64707,-8.9323684 -4.68906,-14.3940219 -1.61735,-8.477405 2.30981,4.449076 9.54702,7.923496 16.50462,7.923496 6.2927,0 10.9192,-1.544865 18.75225,-6.2616825 5.71276,-3.4400469 10.64147,-4.0251908 14.98504,-1.7790462 4.30306,2.2251987 10.15434,9.3634297 14.02549,17.1102967 4.93542,9.876682 6.26103,14.090492 4.93527,15.687947 -0.83049,1.000678 -0.0858,1.37341 3.76475,1.884196 15.01399,1.991675 28.2453,11.176448 35.17943,24.420458 1.47366,2.814708 2.95687,4.817036 3.29597,4.449616 0.33909,-0.367419 2.58187,-6.363348 4.98403,-13.324285 7.48153,-21.68048 13.50037,-31.520495 24.31106,-39.745087 11.51519,-8.7605967 23.07179,-11.9101356 45.94409,-12.5212743 26.7552,-0.7148872 45.6696,2.0448933 81.3773,11.8736803 21.4642,5.908142 29.0479,8.133751 75.2906,22.095404 40.9837,12.373893 87.6766,25.727127 106.908,30.573572 l 15.9707,4.024701 17.7793,-3.884537 c 35.247,-7.700945 56.1578,-10.5488 77.2827,-10.52518 21.9148,0.02451 32.2617,2.933749 39.6945,11.160893 L 1458.7451,75 l 14.5337,0 c 11.3802,0 14.5337,-0.267316 14.5337,-1.231991 0,-0.677595 -1.4875,-8.554981 -3.3055,-17.505302 -1.818,-8.950321 -3.1743,-16.66699 -3.0139,-17.148154 0.285,-0.854997 30.2257,35.483013 30.2257,36.683904 0,1.312874 -30.0158,37.416393 -30.2538,36.389853 -0.1396,-0.60201 1.2315,-8.44333 3.0468,-17.425163 1.8154,-8.981838 3.3007,-16.681057 3.3007,-17.109379 0,-0.428322 -6.6445,-0.778756 -14.7656,-0.778741 l -14.7656,2.8e-5 -2.6241,3.28871 c -3.0638,3.839734 -9.5536,7.350555 -17.7809,9.618947 -8.8163,2.430748 -37.0262,2.108573 -55.0638,-0.628862 -15.5962,-2.366913 -38.2758,-6.713052 -52.2902,-10.020488 l -9.634,-2.273631 -11.4597,2.873988 c -25.5866,6.416826 -61.7318,16.725009 -112.2411,32.009801 -96.9283,29.33181 -113.972,33.27222 -147.1875,34.02901 -9.0234,0.20559 -18.9493,0.0111 -22.0575,-0.43226 z m 30.0263,-1.92209 c 18.2346,-1.30646 33.5674,-3.94029 54.375,-9.34043 19.6411,-5.09743 26.1077,-6.98022 89.5312,-26.06761 39.6481,-11.93214 70.0538,-20.690617 97.9688,-28.220224 l 10.3125,-2.781633 -33.3373,-0.06664 -33.3371,-0.06665 -14.9441,5.226598 c -90.1317,31.523042 -168.7326,44.815272 -207.6823,35.121242 -21.60519,-5.37722 -34.38613,-17.875693 -36.22663,-35.425965 l -0.51618,-4.921875 -8.30635,0 c -4.56853,0 -8.30625,0.105469 -8.30615,0.234375 0,1.313682 9.9345,28.132635 12.1814,32.888225 10.86957,23.00563 27.36041,31.92764 63.28721,34.24024 1.0312,0.0664 7.7812,-0.30246 15,-0.81966 z m 32.5998,-28.02054 c 36.8562,-5.44563 76.6802,-15.33566 122.0877,-30.319722 l 23.4375,-7.734168 -124.606,-0.237821 c -68.5332,-0.130802 -124.80552,-0.03822 -125.04946,0.205733 -0.24393,0.243956 0.075,3.079103 0.70866,6.300327 1.29263,6.569938 4.28456,13.040473 8.15906,17.645041 5.65174,6.71677 18.68654,12.77425 32.19394,14.96109 3.8672,0.62609 7.6641,1.29091 8.4375,1.4774 4.3705,1.05377 42.9217,-0.56775 54.6311,-2.29788 z m 346.0282,-27.797948 c 7.0488,-1.418059 15.1616,-5.498106 17.2818,-8.69127 l 1.3501,-2.033422 -61.755,0.07402 c -33.9652,0.04071 -61.3331,0.237153 -60.8175,0.436547 2.5013,0.967247 34.3397,7.08186 45.9375,8.82235 25.4555,3.820123 43.7503,4.259106 58.0031,1.391781 z M 984.71241,69.216105 c 1.22728,-11.741513 8.45222,-22.421139 19.36599,-28.625941 20.1789,-11.472259 56.6852,-12.674069 106.6495,-3.51096 34.72,6.367433 84.1251,19.956691 120.6582,33.187992 l 13.1048,4.746224 33.1915,-0.03859 c 18.2552,-0.02123 33.0299,-0.195921 32.8326,-0.388211 -0.1973,-0.192296 -6.265,-1.898713 -13.4837,-3.792044 -18.9586,-4.97243 -63.3977,-17.809515 -101.25,-29.247953 C 1096.315,11.48933 1081.026,8.0636333 1046.25,8.0423545 1029.5552,8.0321393 1025.9568,8.300565 1018.8499,10.086295 1001.0969,14.547042 988.46784,24.144773 980.92762,38.90625 977.92922,44.776125 967.5,72.286628 967.5,74.325884 c 0,0.235214 3.73472,0.503226 8.29931,0.595583 l 8.29922,0.167921 0.61388,-5.873283 z m 251.85009,5.36335 c 0,-0.231299 -10.2305,-3.782193 -22.7344,-7.890876 -100.7659,-33.110874 -173.5203,-42.015338 -206.7123,-25.299655 -6.832,3.440636 -14.51621,11.109606 -17.19136,17.157351 -2.11819,4.788527 -4.04813,14.153151 -3.19969,15.525958 0.5655,0.914929 249.83775,1.421004 249.83775,0.507222 z M 1455,74.133967 c 0,-1.710231 -6.6218,-6.521439 -11.4746,-8.337101 -16.9504,-6.341958 -46.7439,-4.89775 -93.4134,4.52811 -9.993,2.018304 -18.4009,3.901436 -18.6843,4.184739 -0.2833,0.283303 27.4047,0.497972 61.5286,0.477041 C 1427.4319,74.96561 1455,74.586686 1455,74.133968 Z M 694.45009,84.80431 C 689.94004,79.904951 686.25,75.580433 686.25,75.194272 c 0,-0.386163 3.77448,-4.459102 8.38772,-9.050976 l 8.38773,-8.348861 4.50289,4.076687 c 2.47661,2.242178 6.71273,6.132561 9.41362,8.645296 l 4.91071,4.568609 -3.03571,2.880386 c -1.66964,1.584211 -5.9902,5.775334 -9.60125,9.313604 l -6.56553,6.43322 -8.20009,-8.907927 z m 15.12844,-3.600617 5.93062,-5.983808 -4.16947,-3.843293 c -2.29322,-2.113813 -5.2479,-4.691571 -6.56595,-5.728354 l -2.39647,-1.88506 -5.25795,5.679218 -5.25795,5.679217 5.32955,6.032943 c 2.93125,3.318119 5.58323,6.032944 5.89328,6.032944 0.31005,0 3.2325,-2.692714 6.49434,-5.983807 z m 99.00863,2.227185 -8.405,-8.44412 8.58921,-8.589206 8.58921,-8.589206 3.58533,3.099687 c 8.34687,7.216254 15.36281,14.400923 14.65687,15.009385 -0.41747,0.359821 -4.46178,4.097477 -8.98735,8.305901 -4.52558,4.208424 -8.54219,7.651681 -8.9258,7.651681 -0.38361,0 -4.47972,-3.799854 -9.10247,-8.444122 z m 20.89955,-8.025936 c 0.14737,-0.08779 -2.38388,-2.732091 -5.625,-5.876238 l -5.89296,-5.716632 -5.60558,5.583925 -5.60559,5.583926 5.54933,5.607847 5.54933,5.607847 5.68125,-5.315535 c 3.1247,-2.923544 5.80184,-5.387356 5.94922,-5.47514 z M 751.87887,27.648584 c -4.38069,-4.881457 -8.07429,-9.203609 -8.20802,-9.604782 -0.13372,-0.401173 3.52463,-4.47971 8.12967,-9.0634155 l 8.3728,-8.33401029 4.52271,3.81997369 c 2.4875,2.1009856 6.6185,5.9656621 9.18,8.5881701 l 4.6573,4.768195 -6.17335,6.323017 c -3.39533,3.47766 -7.35382,7.694112 -8.79662,9.369893 -1.44282,1.675781 -2.86996,3.038204 -3.17145,3.027606 -0.30148,-0.0106 -4.13235,-4.013189 -8.51304,-8.894647 z m 15.00123,-3.747479 6.04468,-6.098895 -5.04275,-4.44798 C 760.25437,6.6262236 760.74605,6.6671364 755.05557,12.286925 752.27501,15.032951 750,17.589833 750,17.968885 c 0,0.80064 9.60089,11.937182 10.33958,11.993388 0.27271,0.02075 3.21594,-2.706776 6.54052,-6.061168 z"
     id="path4367"
     inkscape:connector-curvature="0" />
</svg>
